<?xml version="1.0" encoding="UTF-8" standalone="no"?>
<svg
   xmlns:dc="http://purl.org/dc/elements/1.1/"
   xmlns:cc="http://creativecommons.org/ns#"
   xmlns:rdf="http://www.w3.org/1999/02/22-rdf-syntax-ns#"
   xmlns:svg="http://www.w3.org/2000/svg"
   xmlns="http://www.w3.org/2000/svg"
   style="fill:none"
   id="svg8"
   version="1.1"
   viewBox="0 0 49 49"
   height="49"
   width="49">
  <metadata
     id="metadata14">
    <rdf:RDF>
      <cc:Work
         rdf:about="">
        <dc:format>image/svg+xml</dc:format>
        <dc:type
           rdf:resource="http://purl.org/dc/dcmitype/StillImage" />
      </cc:Work>
    </rdf:RDF>
  </metadata>
  <defs
     id="defs12" />
  <circle
     style="fill:#f06680"
     id="circle2"
     r="24.5"
     cy="24.5"
     cx="24.5" />
  <path
     style="stroke:#ffffff"
     id="path4"
     d="m 25.4152,13.691 0.0044,0.0065 0.0045,0.0064 6.5843,9.1264 2e-4,2e-4 c 2.319,3.2107 1.8925,7.5113 -0.994,10.2915 -3.3292,3.1707 -8.7197,3.1707 -12.049,0 -2.8837,-2.7776 -3.2822,-7.0778 -0.961,-10.2915 l 2e-4,-2e-4 6.5842,-9.1264 h 10e-5 l 0.0041,-0.0059 c 0.0267,-0.0381 0.0753,-0.0852 0.1187,-0.1135 0.267,-0.1609 0.5793,-0.0772 0.7033,0.1065 z" />
  <path
     style="stroke:#ffffff;stroke-linecap:round;stroke-linejoin:bevel"
     id="path6"
     d="m 28.75,31.548 c 2.6098,-2.1982 3.0027,-5.6123 0.898,-8.1613" />
</svg>
